<svg version="1.1" id="Uploaded to svgrepo.com" xmlns="http://www.w3.org/2000/svg" xmlns:xlink="http://www.w3.org/1999/xlink" viewBox="0 0 32 32" xml:space="preserve" fill="#000000"><g id="SVGRepo_bgCarrier" stroke-width="0"></g><g id="SVGRepo_tracerCarrier" stroke-linecap="round" stroke-linejoin="round"></g><g id="SVGRepo_iconCarrier"> <style type="text/css"> .feather_een{fill:#7a7c94;} </style> <path class="feather_een" d="M26.044,9H22l0-1.748c0-3.285-2.532-6.15-5.815-6.249C12.787,0.901,10,3.625,10,7v2H5.956 C5.421,9,4.981,9.421,4.957,9.955L4.143,27.864C4.065,29.572,5.429,31,7.139,31h17.721c1.71,0,3.075-1.428,2.997-3.136L27.043,9.955 C27.019,9.421,26.579,9,26.044,9z M11,7c0-2.757,2.243-5,5-5s5,2.243,5,5v2h-1V7c0-2.206-1.794-4-4-4s-4,1.794-4,4v2h-1V7z M19,9h-6 V7c0-1.657,1.343-3,3-3s3,1.343,3,3V9z M5.142,27.909L5.956,10h20.089l0.814,17.909C26.91,29.048,26.001,30,24.861,30H7.139 C5.999,30,5.09,29.048,5.142,27.909z"></path> </g></svg>